<svg xmlns="http://www.w3.org/2000/svg" viewBox="0 0 180 32" fill="currentColor">
  <!-- Shopping cart icon -->
  <g transform="translate(0, 4)">
    <path d="M6 2a1 1 0 0 0 0 2h1.22l.305 1.222 2.078 8.31A3 3 0 0 0 12.525 16h7.95a3 3 0 0 0 2.922-2.468l1.428-5.715A1 1 0 0 0 23.855 6H8.78l-.305-1.222A2 2 0 0 0 6.535 3H6zm3.78 6h12.49l-1.143 4.572A1 1 0 0 1 20.475 13h-7.95a1 1 0 0 1-.652-.572L10.78 8z"/>
    <circle cx="13" cy="20" r="2"/>
    <circle cx="20" cy="20" r="2"/>
  </g>
  <!-- Text: Practice EC -->
  <text x="32" y="22" font-family="system-ui, -apple-system, sans-serif" font-size="14" font-weight="600">
    Practice EC
  </text>
</svg>
